<svg viewBox="0 0 2962.12 735" xmlns="http://www.w3.org/2000/svg"><g fill="#5f6368"><path d="m1112.93 206.44h48.48l137.36 361.56h-47l-36.36-99.49h-156.51l-36.36 99.49h-47zm87.87 221.69-48.48-130.29-14.14-38.84h-2l-14.18 38.84-48.48 130.29z"/><path d="m1333.11 310.47h40.89v37.87h2q10.61-19.18 33.83-32.57a97.66 97.66 0 0 1 49.49-13.38q46.46 0 71 27t24.49 73.47v165.14h-42.93v-158.55q0-35.85-17.17-52t-47-16.16a62.71 62.71 0 0 0 -37.12 11.62 78.14 78.14 0 0 0 -25.5 30.55 90.54 90.54 0 0 0 -9.09 39.64v144.9h-42.93z"/><path d="m1638.53 565q-22.23-11.1-34.34-30.55t-12.12-44.19q0-40.9 30.81-63.88t77.77-23a175.89 175.89 0 0 1 43.17 5.05q20 5.06 30.56 11.61v-15.64q0-28.78-20.2-46.21t-51-17.42a86.52 86.52 0 0 0 -39.64 9.34 72.57 72.57 0 0 0 -29 26l-32.32-24.24q15.15-23.22 41.92-36.36t59.08-13.13q52.51 0 82.32 27.52t29.79 75v163.1h-40.9v-36.85h-2q-11.18 18.69-33.43 31.85t-50 13.13q-28.26-.03-50.47-11.13zm94.94-37.88a84.21 84.21 0 0 0 29.8-29.79 78.62 78.62 0 0 0 11.11-40.91q-12.12-8.07-29.8-13.13a135.69 135.69 0 0 0 -37.37-5q-35.36 0-53.28 14.65t-17.93 37.81q0 21.21 16.16 34.34t40.9 13.13a77.66 77.66 0 0 0 40.41-11.11z"/><path d="m1867.65 206.44h42.92v361.56h-42.92z"/><path d="m2047.93 551.86-106.56-241.39h46.46l80.8 191.39h1l77.77-191.39h46.46l-159.06 366.63h-44.44z"/><path d="m2299.67 571a65.7 65.7 0 0 1 -22.47-13.89q-20.2-19.52-20.21-54v-153.76h-44.94v-38.88h44.95v-72.72h42.93v72.72h63.07v38.88h-63.12v143.5q0 21.67 8.08 32 9.59 11.35 27.78 11.35a49.07 49.07 0 0 0 28.27-8.58v41.91a65.79 65.79 0 0 1 -15.4 5.05 108 108 0 0 1 -20 1.52 80.39 80.39 0 0 1 -28.94-5.1z"/><path d="m2399.61 253.91a30.78 30.78 0 0 1 0-43.68 30.89 30.89 0 0 1 43.68 43.68 30.78 30.78 0 0 1 -43.68 0zm.5 56.56h42.89v257.53h-42.93z"/><path d="m2548 558.17a125 125 0 0 1 -46.46-49q-16.67-31.06-16.66-69.95t16.66-70.19a122.91 122.91 0 0 1 46.46-49q29.79-17.67 67.17-17.67 41.91 0 70.45 19.44a106.56 106.56 0 0 1 40.65 51.76l-38.89 16.16q-9.6-23.73-28.53-36.1t-45.7-12.38a78.3 78.3 0 0 0 -42.42 12.38q-19.7 12.38-31.56 34.59t-11.87 51q0 28.78 11.87 51t31.56 34.59a78.2 78.2 0 0 0 42.42 12.37q27.27 0 47-12.62t29.29-35.86l38.38 16.16a113.43 113.43 0 0 1 -42.16 51.51q-29.05 19.7-70.45 19.7-37.4.04-67.21-17.89z"/><path d="m2790.92 556.66q-27.78-19.44-39.39-49.75l38.38-17.17q9.6 23.24 28.54 35.86a73.49 73.49 0 0 0 41.66 12.62q24.24 0 41.41-9.84t17.17-28q0-16.16-13.64-26t-42.92-16.92l-31.31-8.08q-30.81-7.57-50.5-25.75t-19.7-47a61.24 61.24 0 0 1 13.38-39.14q13.36-16.92 35.6-26a125.44 125.44 0 0 1 48-9.09q33.84 0 60.35 14.64t37.62 40.91l-37.37 17.17q-17.16-34.33-61.1-34.34-21.21 0-37.12 9.85t-15.91 25a28 28 0 0 0 11.11 23q11.12 8.85 33.33 14.39l37.37 9.6q37.88 9.6 57.07 28.53t19.19 46.21q0 23.74-13.64 41.66t-36.86 27.52q-23.23 9.6-51.51 9.6-41.43-.04-69.21-19.48z"/></g><path d="m664 643.13c0 54.41-46.86 97.78-102 91.21-46.41-5.52-80-47.79-80-95v-543.72c0-47.17 33.54-89.45 80-95 55.2-6.56 102 36.8 102 91.21z" fill="#f9ab00"/><circle cx="91" cy="644" fill="#e37400" r="91"/><path d="m330.6 277c-50 1.3-88.6 45.43-88.6 95.82v244.9c0 66.39 29.24 106.64 72 115.34 58.57 11.94 110-32.82 110-89.66v-274.8c0-51.39-42-92.9-93.4-91.6z" fill="#e37400"/></svg>