<?xml version="1.0" encoding="utf-8"?>
<!-- Generator: Adobe Illustrator 23.0.0, SVG Export Plug-In . SVG Version: 6.00 Build 0)  -->
<svg version="1.1" id="Computer" xmlns="http://www.w3.org/2000/svg" xmlns:xlink="http://www.w3.org/1999/xlink" x="0px" y="0px"
	 viewBox="0 0 600 450" style="enable-background:new 0 0 600 450;" xml:space="preserve">
<style type="text/css">
	.st0{fill:url(#SVGID_1_);}
	.st1{fill:url(#SVGID_2_);}
	.st2{fill:url(#SVGID_3_);}
	.st3{fill:url(#SVGID_4_);}
	.st4{fill:url(#SVGID_5_);}
	.st5{opacity:0.6;fill:#020230;enable-background:new    ;}
	.st6{fill:url(#SVGID_6_);}
	.st7{fill:url(#SVGID_7_);}
	.st8{fill:url(#SVGID_8_);}
	.st9{fill:#FFFFFF;}
	.st10{opacity:0.4;}
	.st11{fill:#06033E;}
	.st12{fill:url(#SVGID_9_);}
	.st13{fill:url(#SVGID_10_);}
	.st14{opacity:0.4;fill:#06033E;enable-background:new    ;}
	.st15{opacity:0.5;fill:#06033E;enable-background:new    ;}
	.st16{fill:url(#SVGID_11_);}
	.st17{opacity:0.5;}
	.st18{fill:#E8975B;}
	.st19{fill:#F8359E;}
	.st20{fill:url(#SVGID_12_);}
	.st21{fill:url(#SVGID_13_);}
	.st22{fill:url(#SVGID_14_);}
	.st23{fill:url(#SVGID_15_);}
	.st24{fill:url(#SVGID_16_);}
	.st25{fill:url(#SVGID_17_);}
	.st26{fill:#0C0A78;}
	.st27{fill:url(#SVGID_18_);}
	.st28{opacity:0.5;fill:#FFFFFF;enable-background:new    ;}
</style>
<title>computer</title>
<g id="squares">
	
		<linearGradient id="SVGID_1_" gradientUnits="userSpaceOnUse" x1="481.0546" y1="142.9739" x2="513.6754" y2="142.9739" gradientTransform="matrix(1 0 0 -1 0 449.89)">
		<stop  offset="0" style="stop-color:#E39A65"/>
		<stop  offset="1" style="stop-color:#E95F8D"/>
	</linearGradient>
	<path class="st0" d="M497.4,316.5c-1.2,0-2.4-0.3-3.5-0.9l-11.7-6.8c-1-0.6-1.4-1.9-0.8-3c0.2-0.3,0.5-0.6,0.8-0.8l11.7-6.8
		c2.2-1.3,4.8-1.3,7,0l11.7,6.7c1,0.6,1.4,1.9,0.8,3c-0.2,0.3-0.5,0.6-0.8,0.8l-11.7,6.8C499.8,316.2,498.6,316.5,497.4,316.5z
		 M497.4,299.2c-0.9,0-1.8,0.2-2.5,0.7l-11.7,6.8c-0.1,0.1-0.2,0.2-0.2,0.3c0,0.1,0.1,0.2,0.2,0.3l11.7,6.8l0,0
		c1.6,0.9,3.5,0.9,5.1,0l11.7-6.8c0.1-0.1,0.2-0.2,0.2-0.3c0-0.1-0.1-0.2-0.2-0.3l-11.7-6.8C499.1,299.4,498.3,299.2,497.4,299.2z"
		/>
	
		<linearGradient id="SVGID_2_" gradientUnits="userSpaceOnUse" x1="436.4121" y1="187.6688" x2="491.1878" y2="187.6688" gradientTransform="matrix(1 0 0 -1 0 449.89)">
		<stop  offset="0" style="stop-color:#E39A65"/>
		<stop  offset="1" style="stop-color:#E95F8D"/>
	</linearGradient>
	<path class="st1" d="M463.8,278c-2,0-3.9-0.5-5.7-1.5l-20.2-11.7c-1.5-0.9-2-2.7-1.1-4.2c0.3-0.5,0.6-0.8,1.1-1.1l20.2-11.7
		c3.5-2,7.8-2,11.3,0l20.2,11.7c1.5,0.8,2,2.7,1.1,4.2c-0.3,0.5-0.7,0.9-1.1,1.1l-20.2,11.7C467.7,277.5,465.8,278.1,463.8,278z
		 M459.1,274.9c2.9,1.7,6.5,1.7,9.5,0l20.2-11.7c0.4-0.2,0.6-0.6,0.6-1c0-0.4-0.2-0.8-0.6-1l-20.2-11.7c-2.9-1.7-6.5-1.7-9.5,0
		l-20.2,11.7c-0.4,0.2-0.6,0.6-0.6,1c0,0.4,0.2,0.8,0.6,1L459.1,274.9z"/>
	
		<linearGradient id="SVGID_3_" gradientUnits="userSpaceOnUse" x1="75.1909" y1="169.3126" x2="129.9591" y2="169.3126" gradientTransform="matrix(1 0 0 -1 0 449.89)">
		<stop  offset="0" style="stop-color:#E39A65"/>
		<stop  offset="1" style="stop-color:#E95F8D"/>
	</linearGradient>
	<path class="st2" d="M102.6,296.4c-2,0-3.9-0.5-5.7-1.5l-20.2-11.7c-1.5-0.9-2-2.7-1.1-4.2c0.3-0.5,0.7-0.8,1.1-1.1l20.2-11.7
		c3.5-2,7.8-2,11.3,0l20.2,11.7c1.5,0.9,2,2.7,1.1,4.2c-0.3,0.5-0.7,0.8-1.1,1.1l-20.2,11.7C106.5,295.9,104.6,296.4,102.6,296.4z
		 M102.6,266.6c-1.7,0-3.3,0.4-4.7,1.3l-20.2,11.7c-0.4,0.2-0.6,0.6-0.6,1c0,0.4,0.2,0.8,0.6,1l20.2,11.7l0,0c2.9,1.7,6.5,1.7,9.4,0
		l20.2-11.7c0.4-0.2,0.6-0.6,0.6-1c0-0.4-0.2-0.8-0.6-1l-20.2-11.7C105.9,267,104.2,266.6,102.6,266.6L102.6,266.6z"/>
	
		<linearGradient id="SVGID_4_" gradientUnits="userSpaceOnUse" x1="139" y1="172.8078" x2="431.32" y2="172.8078" gradientTransform="matrix(1 0 0 -1 0 449.89)">
		<stop  offset="0" style="stop-color:#E39A65"/>
		<stop  offset="1" style="stop-color:#E95F8D"/>
	</linearGradient>
	<path class="st3" d="M310.4,362.3c-1.6,0-3.1-0.3-4.5-1.1l0,0l-164.8-95.2c-1.2-0.6-2-1.8-2.1-3.1c0-1.5,1-2.9,2.8-3.9l112.4-65.8
		c3.1-1.8,7.6-2,10.3-0.4L429.2,288c1.2,0.6,2,1.8,2.1,3.2c0,1.4-1,2.9-2.8,3.9l-112.4,65.9C314.4,361.8,312.4,362.4,310.4,362.3z
		 M259.9,193.7c-1.7,0-3.4,0.4-4.9,1.2l-112.4,65.8c-1.2,0.7-1.8,1.5-1.8,2.3c0.1,0.7,0.5,1.3,1.2,1.5l164.8,95.2l0,0
		c2.1,1.2,6,1,8.4-0.4l112.4-65.8c1.1-0.7,1.8-1.5,1.8-2.3c-0.1-0.7-0.5-1.3-1.2-1.5l-164.8-95.2
		C262.4,193.9,261.1,193.6,259.9,193.7z"/>
	
		<linearGradient id="SVGID_5_" gradientUnits="userSpaceOnUse" x1="143.4473" y1="259.5962" x2="220.2131" y2="259.5962" gradientTransform="matrix(1 0 0 -1 0 449.89)">
		<stop  offset="0" style="stop-color:#E39A65"/>
		<stop  offset="1" style="stop-color:#E95F8D"/>
	</linearGradient>
	<path class="st4" d="M181.8,212.3c-2.7,0-5.4-0.7-7.8-2.1l0,0l-28.6-16.5c-1.9-1.1-2.5-3.6-1.4-5.5c0.3-0.6,0.8-1,1.4-1.4
		l28.6-16.5c4.8-2.8,10.8-2.8,15.6,0l28.6,16.5c1.9,1.1,2.6,3.5,1.5,5.4c-0.4,0.6-0.9,1.1-1.5,1.5l-28.6,16.5
		C187.2,211.6,184.5,212.3,181.8,212.3z M174.9,208.6c4.3,2.4,9.5,2.4,13.8,0l28.6-16.5c1-0.6,1.4-1.8,0.8-2.9
		c-0.2-0.3-0.5-0.6-0.8-0.8L188.7,172c-4.3-2.5-9.5-2.5-13.8,0l-28.6,16.5c-1,0.6-1.4,1.8-0.8,2.9c0.2,0.3,0.5,0.6,0.8,0.8
		L174.9,208.6z"/>
</g>
<g id="computer">
	<path class="st5" d="M307.1,347.3l-144.4-83.4c-2.1-1.2-1.8-3.3,0.6-4.7l92.7-53.5c2.4-1.4,6.1-1.6,8.2-0.3l144.4,83.4
		c2.1,1.2,1.8,3.3-0.6,4.7l-92.7,53.5C312.9,348.3,309.2,348.5,307.1,347.3z"/>
	
		<radialGradient id="SVGID_6_" cx="300.45" cy="389.28" r="223.3" gradientTransform="matrix(1 0 0 -1 0 449.89)" gradientUnits="userSpaceOnUse">
		<stop  offset="0" style="stop-color:#E39A65"/>
		<stop  offset="0.47" style="stop-color:#A92FFB"/>
		<stop  offset="0.59" style="stop-color:#891CFB"/>
		<stop  offset="0.74" style="stop-color:#6507FA"/>
		<stop  offset="0.8" style="stop-color:#0D0C6F"/>
	</radialGradient>
	<path class="st6" d="M447,148.9L303.1,65.8c-0.9-0.5-1.9-0.7-2.9-0.4l0,0l-2.7,0.9l0.9,0.2c-0.4,0.5-0.7,1-0.9,1.6L265,173.8
		c-0.8,2.7,0.3,5.6,2.6,7.1L411.5,264c0.3,0.2,0.7,0.3,1.1,0.4l-0.4,0.8l2.5-0.9l0,0c1.1-0.5,2-1.5,2.3-2.7L449.6,156
		C450.4,153.3,449.3,150.4,447,148.9z"/>
	
		<radialGradient id="SVGID_7_" cx="163.87" cy="209.96" r="244.17" gradientTransform="matrix(1 0 0 -1 0 449.89)" gradientUnits="userSpaceOnUse">
		<stop  offset="0" style="stop-color:#E39A65"/>
		<stop  offset="0.47" style="stop-color:#A92FFB"/>
		<stop  offset="0.57" style="stop-color:#891CFB"/>
		<stop  offset="0.68" style="stop-color:#6507FA"/>
		<stop  offset="0.74" style="stop-color:#0D0C6F"/>
	</radialGradient>
	<path class="st7" d="M406.4,267.9L406.4,267.9L264.3,186c-2.1-1.2-5.7-1.1-8.1,0.3l-91.8,53l-3.1-1.2l0.9,4.3l0,0
		c0.2,0.8,0.7,1.4,1.4,1.7L307,327c2.1,1.2,5.7,1,8.1-0.3l92.1-53.1c0.9-0.4,1.6-1.3,2-2.3l0,0l0.8-4.3L406.4,267.9z"/>
	
		<radialGradient id="SVGID_8_" cx="186.33" cy="258.97" r="218.96" gradientTransform="matrix(1 0 0 -1 0 449.89)" gradientUnits="userSpaceOnUse">
		<stop  offset="0" style="stop-color:#E39A65"/>
		<stop  offset="0.47" style="stop-color:#A92FFB"/>
		<stop  offset="0.59" style="stop-color:#891CFB"/>
		<stop  offset="0.73" style="stop-color:#6507FA"/>
		<stop  offset="1" style="stop-color:#3919BB"/>
	</radialGradient>
	<path class="st8" d="M307.1,323.2l-144.4-83.4c-2.1-1.2-1.8-3.3,0.6-4.7l92.7-53.5c2.4-1.4,6.1-1.6,8.2-0.3l144.4,83.4
		c2.1,1.2,1.8,3.3-0.6,4.7l-92.7,53.5C312.9,324.2,309.2,324.4,307.1,323.2z"/>
	<path class="st9" d="M408,268.2l-92.7,53.5c-2.4,1.4-6.1,1.5-8.2,0.3l-144.4-83.4c-0.6-0.3-1.1-0.9-1.3-1.5
		c-0.3,1.1,0.3,2.2,1.3,2.6l144.4,83.4c2.1,1.2,5.8,1.1,8.2-0.3l92.7-53.5c1.6-0.9,2.2-2.2,1.9-3.2C409.6,267,408.9,267.8,408,268.2
		z"/>
	<g class="st10">
		<path class="st11" d="M231.6,226.2l-4.9-2.8c-0.4-0.2-0.4-0.6,0.1-0.9l5.8-3.3c0.5-0.3,1-0.3,1.5-0.1l4.9,2.8
			c0.4,0.2,0.4,0.6-0.1,0.9l-5.8,3.3C232.7,226.5,232.1,226.5,231.6,226.2z"/>
		<path class="st11" d="M239.1,230.6l-4.9-2.8c-0.4-0.2-0.4-0.6,0.1-0.9l5.8-3.3c0.5-0.3,1-0.3,1.5-0.1l4.9,2.8
			c0.4,0.2,0.4,0.6-0.1,0.9l-5.8,3.3C240.2,230.8,239.6,230.8,239.1,230.6z"/>
		<path class="st11" d="M246.6,235l-4.9-2.8c-0.4-0.2-0.4-0.6,0.1-0.9l5.8-3.3c0.5-0.3,1-0.3,1.5-0.1l4.9,2.8
			c0.4,0.2,0.4,0.6-0.1,0.9l-5.8,3.3C247.7,235.2,247.1,235.2,246.6,235z"/>
		<path class="st11" d="M257.1,231.4l-4.9-2.8c-0.4-0.2-0.3-0.6,0.1-0.9l4.8-2.8c0.5-0.3,1-0.3,1.5-0.1l4.9,2.8
			c0.4,0.2,0.3,0.6-0.1,0.9l-4.8,2.8C258.1,231.5,257.5,231.6,257.1,231.4z"/>
		<path class="st11" d="M264.6,235.7l-4.9-2.8c-0.4-0.2-0.3-0.6,0.1-0.9l4.8-2.8c0.5-0.3,1-0.3,1.5-0.1l4.9,2.8
			c0.4,0.2,0.3,0.6-0.1,0.9l-4.8,2.8C265.6,235.9,265.1,235.9,264.6,235.7z"/>
		<path class="st11" d="M272.1,240l-4.9-2.8c-0.4-0.2-0.3-0.6,0.1-0.9l4.8-2.8c0.5-0.3,1-0.3,1.5-0.1l4.9,2.8
			c0.4,0.2,0.3,0.6-0.1,0.9l-4.8,2.8C273.2,240.3,272.6,240.3,272.1,240z"/>
		<path class="st11" d="M279.6,244.4l-4.9-2.8c-0.4-0.2-0.3-0.6,0.1-0.9l4.8-2.8c0.5-0.3,1-0.3,1.5-0.1l4.9,2.8
			c0.4,0.2,0.3,0.6-0.1,0.9l-4.8,2.8C280.7,244.6,280.1,244.6,279.6,244.4z"/>
		<path class="st11" d="M287.2,248.7l-4.9-2.8c-0.4-0.2-0.3-0.6,0.1-0.9l4.8-2.8c0.5-0.3,1-0.3,1.5-0.1l4.9,2.8
			c0.4,0.2,0.3,0.6-0.1,0.9l-4.8,2.8C288.2,248.9,287.7,249,287.2,248.7z"/>
		<path class="st11" d="M294.7,253.1l-4.9-2.8c-0.4-0.2-0.3-0.6,0.1-0.9l4.8-2.8c0.5-0.3,1-0.3,1.5-0.1l4.9,2.8
			c0.4,0.2,0.3,0.6-0.1,0.9l-4.8,2.8C295.8,253.3,295.2,253.3,294.7,253.1z"/>
		<path class="st11" d="M302.2,257.4l-4.9-2.8c-0.4-0.2-0.3-0.6,0.1-0.9l4.8-2.7c0.5-0.3,1-0.3,1.5-0.1l4.9,2.8
			c0.4,0.2,0.3,0.6-0.1,0.9l-4.8,2.8C303.3,257.7,302.7,257.7,302.2,257.4z"/>
		<path class="st11" d="M309.8,261.8l-4.9-2.8c-0.4-0.2-0.3-0.6,0.1-0.9l4.8-2.8c0.5-0.3,1-0.3,1.5-0.1l4.9,2.8
			c0.4,0.2,0.3,0.6-0.1,0.9l-4.8,2.8C310.8,262,310.3,262,309.8,261.8z"/>
		<path class="st11" d="M317.3,266.1l-4.9-2.8c-0.4-0.2-0.3-0.6,0.1-0.9l4.8-2.8c0.5-0.3,1-0.3,1.5-0.1l4.9,2.8
			c0.4,0.2,0.3,0.6-0.1,0.9l-4.8,2.8C318.4,266.3,317.8,266.4,317.3,266.1z"/>
		<path class="st11" d="M324.8,270.5l-4.8-2.8c-0.4-0.2-0.3-0.6,0.1-0.9l4.8-2.8c0.5-0.3,1-0.3,1.5-0.1l4.9,2.8
			c0.4,0.2,0.3,0.6-0.1,0.9l-4.8,2.8C325.9,270.7,325.3,270.7,324.8,270.5z"/>
		<path class="st11" d="M268.1,229.3l-4.9-2.8c-0.4-0.2-0.4-0.6,0.1-0.9l4.8-2.8c0.5-0.3,1-0.3,1.5-0.1l4.9,2.8
			c0.4,0.2,0.3,0.6-0.1,0.9l-4.8,2.8C269.2,229.5,268.6,229.5,268.1,229.3z"/>
		<path class="st11" d="M260.5,224.9l-4.9-2.8c-0.4-0.2-0.3-0.6,0.1-0.9l4.8-2.8c0.5-0.3,1-0.3,1.5-0.1l4.9,2.8
			c0.4,0.2,0.3,0.6-0.1,0.9l-4.9,2.8C261.5,225.1,261,225.1,260.5,224.9z"/>
		<path class="st11" d="M252.9,220.5l-10.5-6.1c-0.4-0.2-0.3-0.6,0.1-0.9l4.8-2.8c0.5-0.3,1-0.3,1.5-0.1l10.5,6.1
			c0.4,0.2,0.4,0.6-0.1,0.9l-4.8,2.8C253.9,220.7,253.3,220.7,252.9,220.5z"/>
		<path class="st11" d="M258.2,215.1l-8.5-4.9c-0.4-0.2-0.3-0.6,0.1-0.9l4.8-2.8c0.5-0.3,1-0.3,1.5-0.1l8.5,4.9
			c0.4,0.2,0.4,0.6-0.1,0.9l-4.8,2.8C259.3,215.3,258.7,215.3,258.2,215.1z"/>
		<path class="st11" d="M275.7,233.6l-4.9-2.8c-0.4-0.2-0.4-0.6,0.1-0.9l4.8-2.8c0.5-0.3,1-0.3,1.5-0.1l4.9,2.8
			c0.4,0.2,0.3,0.6-0.1,0.9l-4.8,2.8C276.7,233.8,276.2,233.9,275.7,233.6z"/>
		<path class="st11" d="M283.2,238l-4.9-2.8c-0.4-0.2-0.4-0.6,0.1-0.9l4.8-2.8c0.5-0.3,1-0.3,1.5-0.1l4.9,2.8
			c0.4,0.2,0.3,0.6-0.1,0.9l-4.8,2.8C284.3,238.2,283.7,238.2,283.2,238z"/>
		<path class="st11" d="M290.7,242.3l-4.9-2.8c-0.4-0.2-0.4-0.6,0.1-0.9l4.8-2.8c0.5-0.3,1-0.3,1.5-0.1l4.9,2.8
			c0.4,0.2,0.3,0.6-0.1,0.9l-4.8,2.8C291.8,242.5,291.2,242.6,290.7,242.3z"/>
		<path class="st11" d="M298.3,246.7l-4.9-2.8c-0.4-0.2-0.4-0.6,0.1-0.9l4.8-2.8c0.5-0.3,1-0.3,1.5-0.1l4.9,2.8
			c0.4,0.2,0.3,0.6-0.1,0.9l-4.8,2.8C299.3,246.9,298.8,246.9,298.3,246.7z"/>
		<path class="st11" d="M305.8,251l-4.9-2.8c-0.4-0.2-0.4-0.6,0.1-0.9l4.8-2.8c0.5-0.3,1-0.3,1.5-0.1l4.9,2.8
			c0.4,0.2,0.3,0.6-0.1,0.9l-4.8,2.9C306.8,251.2,306.3,251.2,305.8,251z"/>
		<path class="st11" d="M313.3,255.4l-4.9-2.8c-0.4-0.2-0.4-0.6,0.1-0.9l4.8-2.8c0.5-0.3,1-0.3,1.5-0.1l4.9,2.8
			c0.4,0.2,0.3,0.6-0.1,0.9l-4.8,2.8C314.4,255.6,313.8,255.6,313.3,255.4z"/>
		<path class="st11" d="M320.9,259.7l-4.9-2.8c-0.4-0.2-0.3-0.6,0.1-0.9l4.8-2.8c0.5-0.3,1-0.3,1.5-0.1l4.9,2.8
			c0.4,0.2,0.3,0.6-0.1,0.9l-4.8,2.8C321.9,259.9,321.4,260,320.9,259.7z"/>
		<path class="st11" d="M328.4,264.1l-4.9-2.8c-0.4-0.2-0.3-0.6,0.1-0.9l4.8-2.8c0.5-0.3,1-0.3,1.5-0.1l4.9,2.8
			c0.4,0.2,0.4,0.6-0.1,0.9l-4.8,2.8C329.5,264.3,328.9,264.3,328.4,264.1z"/>
		<path class="st11" d="M335.9,268.4l-4.9-2.8c-0.4-0.2-0.3-0.6,0.1-0.9l4.8-2.8c0.5-0.3,1-0.3,1.5-0.1l4.9,2.8
			c0.4,0.2,0.4,0.6-0.1,0.9l-4.8,2.8C337,268.6,336.4,268.6,335.9,268.4z"/>
		<path class="st11" d="M349.3,276.2l-10.6-6.2c-0.4-0.2-0.3-0.6,0.1-0.9l4.8-2.8c0.5-0.3,1-0.3,1.5-0.1l10.6,6.1
			c0.4,0.2,0.3,0.6-0.1,0.9l-4.8,2.8C350.4,276.3,349.8,276.4,349.3,276.2z"/>
		<path class="st11" d="M364,267.7l-9-5.2c-0.4-0.2-0.3-0.6,0.1-0.9l4.8-2.8c0.5-0.3,1-0.3,1.5-0.1l9,5.2c0.4,0.2,0.3,0.6-0.1,0.9
			l-4.8,2.8C365.1,267.9,364.5,267.9,364,267.7z"/>
		<path class="st11" d="M288.9,232.8L284,230c-0.4-0.2-0.3-0.6,0.1-0.9l4.8-2.8c0.5-0.3,1-0.3,1.5-0.1l4.9,2.8
			c0.4,0.2,0.3,0.6-0.1,0.9l-4.8,2.8C289.9,233,289.4,233,288.9,232.8z"/>
		<path class="st11" d="M281.1,228.3l-4.9-2.8c-0.4-0.2-0.4-0.6,0.1-0.9l4.8-2.8c0.5-0.3,1-0.3,1.5-0.1l4.9,2.8
			c0.4,0.2,0.3,0.6-0.1,0.9l-4.8,2.8C282.2,228.5,281.6,228.6,281.1,228.3z"/>
		<path class="st11" d="M273.4,223.9l-4.9-2.8c-0.4-0.2-0.3-0.6,0.1-0.9l4.8-2.8c0.5-0.3,1-0.3,1.5-0.1l4.9,2.8
			c0.4,0.2,0.4,0.6-0.1,0.9l-4.8,2.8C274.5,224.1,273.9,224.1,273.4,223.9z"/>
		<path class="st11" d="M265.7,219.4l-4.9-2.8c-0.4-0.2-0.3-0.6,0.1-0.9l4.8-2.8c0.5-0.3,1-0.3,1.5-0.1l4.9,2.8
			c0.4,0.2,0.3,0.6-0.1,0.9l-4.8,2.8C266.8,219.6,266.2,219.7,265.7,219.4z"/>
		<path class="st11" d="M296.4,237.1l-4.9-2.8c-0.4-0.2-0.3-0.6,0.1-0.9l4.8-2.8c0.5-0.3,1-0.3,1.5-0.1l4.9,2.8
			c0.4,0.2,0.3,0.6-0.1,0.9l-4.8,2.8C297.5,237.3,296.9,237.4,296.4,237.1z"/>
		<path class="st11" d="M303.9,241.5l-4.9-2.8c-0.4-0.2-0.3-0.6,0.1-0.9l4.8-2.8c0.5-0.3,1-0.3,1.5-0.1l4.9,2.8
			c0.4,0.2,0.3,0.6-0.1,0.9l-4.8,2.8C305,241.7,304.4,241.7,303.9,241.5z"/>
		<path class="st11" d="M311.5,245.8l-4.9-2.8c-0.4-0.2-0.3-0.6,0.1-0.9l4.8-2.8c0.5-0.3,1-0.3,1.5-0.1l4.9,2.8
			c0.4,0.2,0.3,0.6-0.1,0.9l-4.8,2.8C312.5,246,312,246.1,311.5,245.8z"/>
		<path class="st11" d="M319,250.2l-4.9-2.8c-0.4-0.2-0.3-0.6,0.1-0.9l4.8-2.8c0.5-0.3,1-0.3,1.5-0.1l4.9,2.8
			c0.4,0.2,0.3,0.6-0.1,0.9l-4.8,2.8C320.1,250.4,319.5,250.4,319,250.2z"/>
		<path class="st11" d="M326.5,254.5l-4.9-2.8c-0.4-0.2-0.3-0.6,0.1-0.9l4.8-2.8c0.5-0.3,1-0.3,1.5-0.1l4.9,2.8
			c0.4,0.2,0.3,0.6-0.1,0.9l-4.8,2.8C327.6,254.7,327,254.8,326.5,254.5z"/>
		<path class="st11" d="M334,258.9l-4.9-2.8c-0.4-0.2-0.3-0.6,0.1-0.9l4.8-2.8c0.5-0.3,1-0.3,1.5-0.1l4.9,2.8
			c0.4,0.2,0.3,0.6-0.1,0.9l-4.8,2.8C335.1,259.1,334.5,259.1,334,258.9z"/>
		<path class="st11" d="M341.6,263.2l-4.9-2.8c-0.4-0.2-0.3-0.6,0.1-0.9l4.8-2.8c0.5-0.3,1-0.3,1.5-0.1l4.9,2.8
			c0.4,0.2,0.3,0.6-0.1,0.9l-4.8,2.8C342.6,263.4,342.1,263.5,341.6,263.2z"/>
		<path class="st11" d="M349.1,267.6l-4.9-2.8c-0.4-0.2-0.4-0.6,0.1-0.9l4.8-2.8c0.5-0.3,1-0.3,1.5-0.1l4.9,2.8
			c0.4,0.2,0.3,0.6-0.1,0.9l-4.8,2.8C350.2,267.8,349.6,267.8,349.1,267.6z"/>
		<path class="st11" d="M356.6,271.9l-4.9-2.8c-0.4-0.2-0.4-0.6,0.1-0.9l4.8-2.8c0.5-0.3,1-0.3,1.5-0.1l4.9,2.8
			c0.4,0.2,0.3,0.6-0.1,0.9l-4.8,2.8C357.7,272.1,357.1,272.1,356.6,271.9z"/>
		<path class="st11" d="M284.9,222l-4.9-2.8c-0.4-0.2-0.3-0.6,0.1-0.9l4.8-2.8c0.5-0.3,1-0.3,1.5-0.1l4.9,2.8
			c0.4,0.2,0.4,0.6-0.1,0.9l-4.8,2.8C285.9,222.2,285.4,222.2,284.9,222z"/>
		<path class="st11" d="M277.4,217.7l-4.9-2.8c-0.4-0.2-0.4-0.6,0.1-0.9l4.8-2.8c0.5-0.3,1-0.3,1.5-0.1l4.9,2.8
			c0.4,0.2,0.3,0.6-0.1,0.9l-4.8,2.8C278.5,217.9,277.9,217.9,277.4,217.7z"/>
		<path class="st11" d="M269.9,213.4l-4.9-2.8c-0.4-0.2-0.3-0.6,0.1-0.9l4.9-2.8c0.5-0.3,1-0.3,1.5-0.1l4.9,2.8
			c0.4,0.2,0.3,0.6-0.1,0.9l-4.8,2.8C271,213.6,270.4,213.6,269.9,213.4z"/>
		<path class="st11" d="M262.4,209.1l-4.9-2.8c-0.4-0.2-0.3-0.6,0.1-0.9l4.8-2.8c0.5-0.3,1-0.3,1.5-0.1l4.9,2.8
			c0.4,0.2,0.4,0.6-0.1,0.9L264,209C263.5,209.3,262.9,209.3,262.4,209.1z"/>
		<path class="st11" d="M270.1,204.6l-4.9-2.8c-0.4-0.2-0.3-0.6,0.1-0.9l1.6-0.9c0.5-0.3,1-0.3,1.5-0.1l4.9,2.8
			c0.4,0.2,0.4,0.6-0.1,0.9l-1.6,0.9C271.2,204.8,270.6,204.8,270.1,204.6z"/>
		<path class="st11" d="M279.9,210.3l-4.9-2.8c-0.4-0.2-0.3-0.6,0.1-0.9l1.6-0.9c0.5-0.3,1-0.3,1.5-0.1l4.9,2.8
			c0.4,0.2,0.4,0.6-0.1,0.9l-1.6,0.9C280.9,210.5,280.4,210.5,279.9,210.3z"/>
		<path class="st11" d="M287.4,214.6l-4.9-2.8c-0.4-0.2-0.3-0.6,0.1-0.9l1.6-0.9c0.5-0.3,1-0.3,1.5-0.1l4.9,2.8
			c0.4,0.2,0.4,0.6-0.1,0.9l-1.6,0.9C288.4,214.8,287.9,214.8,287.4,214.6z"/>
		<path class="st11" d="M294.8,218.9l-4.8-2.8c-0.4-0.2-0.4-0.6,0.1-0.9l1.6-0.9c0.5-0.3,1-0.3,1.5-0.1l4.9,2.8
			c0.4,0.2,0.3,0.6-0.1,0.9l-1.6,0.9C295.9,219.1,295.3,219.1,294.8,218.9z"/>
		<path class="st11" d="M302.3,223.2l-4.9-2.8c-0.4-0.2-0.4-0.6,0.1-0.9l1.6-0.9c0.5-0.3,1-0.3,1.5-0.1l4.9,2.8
			c0.4,0.2,0.3,0.6-0.1,0.9l-1.6,0.9C303.3,223.4,302.8,223.4,302.3,223.2z"/>
		<path class="st11" d="M344,247.2l-4.9-2.8c-0.4-0.2-0.3-0.6,0.1-0.9l1.6-0.9c0.5-0.3,1-0.3,1.5-0.1l4.9,2.8
			c0.4,0.2,0.4,0.6-0.1,0.9l-1.6,0.9C345.1,247.4,344.5,247.5,344,247.2z"/>
		<path class="st11" d="M351.4,251.5l-4.9-2.8c-0.4-0.2-0.4-0.6,0.1-0.9l1.6-0.9c0.5-0.3,1-0.3,1.5-0.1l4.9,2.8
			c0.4,0.2,0.3,0.6-0.1,0.9l-1.6,0.9C352.5,251.7,351.9,251.8,351.4,251.5z"/>
		<path class="st11" d="M358.9,255.8L354,253c-0.4-0.2-0.4-0.6,0.1-0.9l1.6-0.9c0.5-0.3,1-0.3,1.5-0.1l4.9,2.8
			c0.4,0.2,0.3,0.6-0.1,0.9l-1.6,0.9C359.9,256,359.4,256.1,358.9,255.8z"/>
		<path class="st11" d="M366.3,260.2l-4.9-2.8c-0.4-0.2-0.3-0.6,0.1-0.9l1.6-0.9c0.5-0.3,1-0.3,1.5-0.1l4.9,2.8
			c0.4,0.2,0.3,0.6-0.1,0.9l-1.6,0.9C367.4,260.4,366.8,260.4,366.3,260.2z"/>
		<path class="st11" d="M292.4,226.4l-4.9-2.8c-0.4-0.2-0.3-0.6,0.1-0.9l4.8-2.8c0.5-0.3,1-0.3,1.5-0.1l4.9,2.8
			c0.4,0.2,0.4,0.6-0.1,0.9l-4.8,2.8C293.5,226.6,292.9,226.6,292.4,226.4z"/>
		<path class="st11" d="M300,230.7l-4.9-2.8c-0.4-0.2-0.3-0.6,0.1-0.9l4.8-2.8c0.5-0.3,1-0.3,1.5-0.1l4.9,2.8
			c0.4,0.2,0.4,0.6-0.1,0.9l-4.8,2.8C301.1,230.9,300.5,231,300,230.7z"/>
		<path class="st11" d="M307.5,235.1l-4.9-2.8c-0.4-0.2-0.3-0.6,0.1-0.9l4.8-2.8c0.5-0.3,1-0.3,1.5-0.1l4.9,2.8
			c0.4,0.2,0.4,0.6-0.1,0.9L309,235C308.5,235.3,308,235.3,307.5,235.1z"/>
		<path class="st11" d="M315,239.4l-4.9-2.8c-0.4-0.2-0.3-0.6,0.1-0.9l4.8-2.8c0.5-0.3,1-0.3,1.5-0.1l4.9,2.8
			c0.4,0.2,0.4,0.6-0.1,0.9l-4.8,2.8C316.1,239.6,315.5,239.7,315,239.4z"/>
		<path class="st11" d="M322.6,243.8l-4.9-2.8c-0.4-0.2-0.3-0.6,0.1-0.9l4.8-2.8c0.5-0.3,1-0.3,1.5-0.1l4.9,2.7
			c0.4,0.2,0.4,0.6-0.1,0.9l-4.8,2.8C323.6,243.9,323,244,322.6,243.8z"/>
		<path class="st11" d="M330.1,248.1l-4.9-2.8c-0.4-0.2-0.3-0.6,0.1-0.9l4.8-2.8c0.5-0.3,1-0.3,1.5-0.1l4.9,2.8
			c0.4,0.2,0.4,0.6-0.1,0.9l-4.8,2.8C331.1,248.3,330.6,248.3,330.1,248.1z"/>
		<path class="st11" d="M337.6,252.5l-4.9-2.8c-0.4-0.2-0.3-0.6,0.1-0.9l4.8-2.8c0.5-0.3,1-0.3,1.5-0.1l4.9,2.8
			c0.4,0.2,0.4,0.6-0.1,0.9l-4.8,2.8C338.7,252.7,338.1,252.7,337.6,252.5z"/>
		<path class="st11" d="M345.1,256.8l-4.9-2.8c-0.4-0.2-0.3-0.6,0.1-0.9l4.8-2.8c0.5-0.3,1-0.3,1.5-0.1l4.9,2.8
			c0.4,0.2,0.4,0.6-0.1,0.9l-4.8,2.8C346.2,257,345.6,257,345.1,256.8z"/>
		<path class="st11" d="M352.7,261.2l-4.9-2.8c-0.4-0.2-0.3-0.6,0.1-0.9l4.8-2.8c0.5-0.3,1-0.3,1.5-0.1l4.9,2.8
			c0.4,0.2,0.3,0.6-0.1,0.9l-4.8,2.8C353.7,261.4,353.2,261.4,352.7,261.2z"/>
		<path class="st11" d="M249.4,226.9l-14.4-8.3c-0.4-0.2-0.3-0.6,0.1-0.9l4.9-2.8c0.5-0.3,1-0.3,1.5-0.1l14.4,8.3
			c0.4,0.2,0.3,0.6-0.1,0.9l-4.8,2.8C250.5,227.2,249.9,227.2,249.4,226.9z"/>
		<path class="st11" d="M341.9,280.3l-14.4-8.3c-0.4-0.2-0.3-0.6,0.1-0.9l4.8-2.8c0.5-0.3,1-0.3,1.5-0.1l14.4,8.3
			c0.4,0.2,0.3,0.6-0.1,0.9l-4.8,2.8C342.9,280.5,342.4,280.6,341.9,280.3z"/>
		<path class="st11" d="M311.8,272.5l-4.9-2.8c-0.4-0.2-0.3-0.6,0.1-0.9l5.8-3.3c0.5-0.3,1-0.3,1.5-0.1l4.9,2.8
			c0.4,0.2,0.3,0.6-0.1,0.9l-5.8,3.3C312.8,272.8,312.3,272.8,311.8,272.5z"/>
		<path class="st11" d="M257.1,241l-7.8-4.5c-0.4-0.2-0.4-0.6,0.1-0.9l5.8-3.3c0.5-0.3,1-0.3,1.5-0.1l7.8,4.5
			c0.4,0.2,0.3,0.6-0.1,0.9l-5.8,3.3C258.1,241.2,257.6,241.2,257.1,241z"/>
		<path class="st11" d="M304.5,268.4l-7.8-4.5c-0.4-0.2-0.4-0.6,0.1-0.9l5.8-3.3c0.5-0.3,1-0.3,1.5-0.1l7.8,4.5
			c0.4,0.2,0.3,0.6-0.1,0.9l-5.8,3.3C305.6,268.6,305,268.6,304.5,268.4z"/>
		<path class="st11" d="M268,247.2l-7.8-4.5c-0.4-0.2-0.3-0.6,0.1-0.9l5.8-3.3c0.5-0.3,1-0.3,1.5-0.1l7.8,4.5
			c0.4,0.2,0.3,0.6-0.1,0.9l-5.8,3.3C269.1,247.5,268.5,247.5,268,247.2z"/>
		<path class="st11" d="M267.6,238.5l33.9,19.6c0.2,0.1,0.4,0.3,0.3,0.6c0,0.1-0.2,0.3-0.3,0.3l-5.9,3.4c-0.5,0.2-1,0.2-1.5,0
			l-33.9-19.6L267.6,238.5z"/>
		<path class="st11" d="M332.8,280.4l5.4,3.1c0.3,0.2,0.3,0.5-0.1,0.7l-2.4,1.4c-0.4,0.2-0.8,0.2-1.3,0.1l-5.4-3.1
			c-0.3-0.2-0.3-0.5,0.1-0.7l2.4-1.4C332,280.3,332.4,280.3,332.8,280.4z"/>
		<path class="st11" d="M325.2,276l5.4,3.1c0.3,0.2,0.3,0.5-0.1,0.7l-2.4,1.4c-0.4,0.2-0.8,0.2-1.3,0l-5.4-3.1
			c-0.3-0.2-0.3-0.5,0.1-0.7l2.4-1.4C324.4,275.9,324.8,275.9,325.2,276z"/>
		<path class="st11" d="M317.7,271.7l5.4,3.1c0.3,0.2,0.3,0.5-0.1,0.7l-2.4,1.4c-0.4,0.2-0.9,0.2-1.3,0l-5.4-3.1
			c-0.3-0.2-0.3-0.5,0.1-0.7l2.4-1.4C316.8,271.5,317.3,271.5,317.7,271.7z"/>
		<path class="st11" d="M329.4,273.6l5.4,3.1c0.3,0.2,0.3,0.5-0.1,0.7l-2.4,1.4c-0.4,0.2-0.8,0.2-1.3,0l-5.4-3.1
			c-0.3-0.2-0.3-0.5,0.1-0.7l2.4-1.4C328.5,273.5,329,273.5,329.4,273.6z"/>
	</g>
	<g class="st10">
		<path class="st11" d="M231.6,226.2l-4.9-2.8c-0.4-0.2-0.4-0.6,0.1-0.9l5.8-3.3c0.5-0.3,1-0.3,1.5-0.1l4.9,2.8
			c0.4,0.2,0.4,0.6-0.1,0.9l-5.8,3.3C232.7,226.5,232.1,226.5,231.6,226.2z"/>
		<path class="st11" d="M239.1,230.6l-4.9-2.8c-0.4-0.2-0.4-0.6,0.1-0.9l5.8-3.3c0.5-0.3,1-0.3,1.5-0.1l4.9,2.8
			c0.4,0.2,0.4,0.6-0.1,0.9l-5.8,3.3C240.2,230.8,239.6,230.8,239.1,230.6z"/>
		<path class="st11" d="M246.6,235l-4.9-2.8c-0.4-0.2-0.4-0.6,0.1-0.9l5.8-3.3c0.5-0.3,1-0.3,1.5-0.1l4.9,2.8
			c0.4,0.2,0.4,0.6-0.1,0.9l-5.8,3.3C247.7,235.2,247.1,235.2,246.6,235z"/>
		<path class="st11" d="M257.1,231.4l-4.9-2.8c-0.4-0.2-0.3-0.6,0.1-0.9l4.8-2.8c0.5-0.3,1-0.3,1.5-0.1l4.9,2.8
			c0.4,0.2,0.3,0.6-0.1,0.9l-4.8,2.8C258.1,231.5,257.5,231.6,257.1,231.4z"/>
		<path class="st11" d="M264.6,235.7l-4.9-2.8c-0.4-0.2-0.3-0.6,0.1-0.9l4.8-2.8c0.5-0.3,1-0.3,1.5-0.1l4.9,2.8
			c0.4,0.2,0.3,0.6-0.1,0.9l-4.8,2.8C265.6,235.9,265.1,235.9,264.6,235.7z"/>
		<path class="st11" d="M272.1,240l-4.9-2.8c-0.4-0.2-0.3-0.6,0.1-0.9l4.8-2.8c0.5-0.3,1-0.3,1.5-0.1l4.9,2.8
			c0.4,0.2,0.3,0.6-0.1,0.9l-4.8,2.8C273.2,240.3,272.6,240.3,272.1,240z"/>
		<path class="st11" d="M279.6,244.4l-4.9-2.8c-0.4-0.2-0.3-0.6,0.1-0.9l4.8-2.8c0.5-0.3,1-0.3,1.5-0.1l4.9,2.8
			c0.4,0.2,0.3,0.6-0.1,0.9l-4.8,2.8C280.7,244.6,280.1,244.6,279.6,244.4z"/>
		<path class="st11" d="M287.2,248.7l-4.9-2.8c-0.4-0.2-0.3-0.6,0.1-0.9l4.8-2.8c0.5-0.3,1-0.3,1.5-0.1l4.9,2.8
			c0.4,0.2,0.3,0.6-0.1,0.9l-4.8,2.8C288.2,248.9,287.7,249,287.2,248.7z"/>
		<path class="st11" d="M294.7,253.1l-4.9-2.8c-0.4-0.2-0.3-0.6,0.1-0.9l4.8-2.8c0.5-0.3,1-0.3,1.5-0.1l4.9,2.8
			c0.4,0.2,0.3,0.6-0.1,0.9l-4.8,2.8C295.8,253.3,295.2,253.3,294.7,253.1z"/>
		<path class="st11" d="M302.2,257.4l-4.9-2.8c-0.4-0.2-0.3-0.6,0.1-0.9l4.8-2.7c0.5-0.3,1-0.3,1.5-0.1l4.9,2.8
			c0.4,0.2,0.3,0.6-0.1,0.9l-4.8,2.8C303.3,257.7,302.7,257.7,302.2,257.4z"/>
		<path class="st11" d="M309.8,261.8l-4.9-2.8c-0.4-0.2-0.3-0.6,0.1-0.9l4.8-2.8c0.5-0.3,1-0.3,1.5-0.1l4.9,2.8
			c0.4,0.2,0.3,0.6-0.1,0.9l-4.8,2.8C310.8,262,310.3,262,309.8,261.8z"/>
		<path class="st11" d="M317.3,266.1l-4.9-2.8c-0.4-0.2-0.3-0.6,0.1-0.9l4.8-2.8c0.5-0.3,1-0.3,1.5-0.1l4.9,2.8
			c0.4,0.2,0.3,0.6-0.1,0.9l-4.8,2.8C318.4,266.3,317.8,266.4,317.3,266.1z"/>
		<path class="st11" d="M324.8,270.5l-4.8-2.8c-0.4-0.2-0.3-0.6,0.1-0.9l4.8-2.8c0.5-0.3,1-0.3,1.5-0.1l4.9,2.8
			c0.4,0.2,0.3,0.6-0.1,0.9l-4.8,2.8C325.9,270.7,325.3,270.7,324.8,270.5z"/>
		<path class="st11" d="M268.1,229.3l-4.9-2.8c-0.4-0.2-0.4-0.6,0.1-0.9l4.8-2.8c0.5-0.3,1-0.3,1.5-0.1l4.9,2.8
			c0.4,0.2,0.3,0.6-0.1,0.9l-4.8,2.8C269.2,229.5,268.6,229.5,268.1,229.3z"/>
		<path class="st11" d="M260.5,224.9l-4.9-2.8c-0.4-0.2-0.3-0.6,0.1-0.9l4.8-2.8c0.5-0.3,1-0.3,1.5-0.1l4.9,2.8
			c0.4,0.2,0.3,0.6-0.1,0.9l-4.9,2.8C261.5,225.1,261,225.1,260.5,224.9z"/>
		<path class="st11" d="M252.9,220.5l-10.5-6.1c-0.4-0.2-0.3-0.6,0.1-0.9l4.8-2.8c0.5-0.3,1-0.3,1.5-0.1l10.5,6.1
			c0.4,0.2,0.4,0.6-0.1,0.9l-4.8,2.8C253.9,220.7,253.3,220.7,252.9,220.5z"/>
		<path class="st11" d="M258.2,215.1l-8.5-4.9c-0.4-0.2-0.3-0.6,0.1-0.9l4.8-2.8c0.5-0.3,1-0.3,1.5-0.1l8.5,4.9
			c0.4,0.2,0.4,0.6-0.1,0.9l-4.8,2.8C259.3,215.3,258.7,215.3,258.2,215.1z"/>
		<path class="st11" d="M275.7,233.6l-4.9-2.8c-0.4-0.2-0.4-0.6,0.1-0.9l4.8-2.8c0.5-0.3,1-0.3,1.5-0.1l4.9,2.8
			c0.4,0.2,0.3,0.6-0.1,0.9l-4.8,2.8C276.7,233.8,276.2,233.9,275.7,233.6z"/>
		<path class="st11" d="M283.2,238l-4.9-2.8c-0.4-0.2-0.4-0.6,0.1-0.9l4.8-2.8c0.5-0.3,1-0.3,1.5-0.1l4.9,2.8
			c0.4,0.2,0.3,0.6-0.1,0.9l-4.8,2.8C284.3,238.2,283.7,238.2,283.2,238z"/>
		<path class="st11" d="M290.7,242.3l-4.9-2.8c-0.4-0.2-0.4-0.6,0.1-0.9l4.8-2.8c0.5-0.3,1-0.3,1.5-0.1l4.9,2.8
			c0.4,0.2,0.3,0.6-0.1,0.9l-4.8,2.8C291.8,242.5,291.2,242.6,290.7,242.3z"/>
		<path class="st11" d="M298.3,246.7l-4.9-2.8c-0.4-0.2-0.4-0.6,0.1-0.9l4.8-2.8c0.5-0.3,1-0.3,1.5-0.1l4.9,2.8
			c0.4,0.2,0.3,0.6-0.1,0.9l-4.8,2.8C299.3,246.9,298.8,246.9,298.3,246.7z"/>
		<path class="st11" d="M305.8,251l-4.9-2.8c-0.4-0.2-0.4-0.6,0.1-0.9l4.8-2.8c0.5-0.3,1-0.3,1.5-0.1l4.9,2.8
			c0.4,0.2,0.3,0.6-0.1,0.9l-4.8,2.9C306.8,251.2,306.3,251.2,305.8,251z"/>
		<path class="st11" d="M313.3,255.4l-4.9-2.8c-0.4-0.2-0.4-0.6,0.1-0.9l4.8-2.8c0.5-0.3,1-0.3,1.5-0.1l4.9,2.8
			c0.4,0.2,0.3,0.6-0.1,0.9l-4.8,2.8C314.4,255.6,313.8,255.6,313.3,255.4z"/>
		<path class="st11" d="M320.9,259.7l-4.9-2.8c-0.4-0.2-0.3-0.6,0.1-0.9l4.8-2.8c0.5-0.3,1-0.3,1.5-0.1l4.9,2.8
			c0.4,0.2,0.3,0.6-0.1,0.9l-4.8,2.8C321.9,259.9,321.4,260,320.9,259.7z"/>
		<path class="st11" d="M328.4,264.1l-4.9-2.8c-0.4-0.2-0.3-0.6,0.1-0.9l4.8-2.8c0.5-0.3,1-0.3,1.5-0.1l4.9,2.8
			c0.4,0.2,0.4,0.6-0.1,0.9l-4.8,2.8C329.5,264.3,328.9,264.3,328.4,264.1z"/>
		<path class="st11" d="M335.9,268.4l-4.9-2.8c-0.4-0.2-0.3-0.6,0.1-0.9l4.8-2.8c0.5-0.3,1-0.3,1.5-0.1l4.9,2.8
			c0.4,0.2,0.4,0.6-0.1,0.9l-4.8,2.8C337,268.6,336.4,268.6,335.9,268.4z"/>
		<path class="st11" d="M349.3,276.2l-10.6-6.2c-0.4-0.2-0.3-0.6,0.1-0.9l4.8-2.8c0.5-0.3,1-0.3,1.5-0.1l10.6,6.1
			c0.4,0.2,0.3,0.6-0.1,0.9l-4.8,2.8C350.4,276.3,349.8,276.4,349.3,276.2z"/>
		<path class="st11" d="M364,267.7l-9-5.2c-0.4-0.2-0.3-0.6,0.1-0.9l4.8-2.8c0.5-0.3,1-0.3,1.5-0.1l9,5.2c0.4,0.2,0.3,0.6-0.1,0.9
			l-4.8,2.8C365.1,267.9,364.5,267.9,364,267.7z"/>
		<path class="st11" d="M288.9,232.8L284,230c-0.4-0.2-0.3-0.6,0.1-0.9l4.8-2.8c0.5-0.3,1-0.3,1.5-0.1l4.9,2.8
			c0.4,0.2,0.3,0.6-0.1,0.9l-4.8,2.8C289.9,233,289.4,233,288.9,232.8z"/>
		<path class="st11" d="M281.1,228.3l-4.9-2.8c-0.4-0.2-0.4-0.6,0.1-0.9l4.8-2.8c0.5-0.3,1-0.3,1.5-0.1l4.9,2.8
			c0.4,0.2,0.3,0.6-0.1,0.9l-4.8,2.8C282.2,228.5,281.6,228.6,281.1,228.3z"/>
		<path class="st11" d="M273.4,223.9l-4.9-2.8c-0.4-0.2-0.3-0.6,0.1-0.9l4.8-2.8c0.5-0.3,1-0.3,1.5-0.1l4.9,2.8
			c0.4,0.2,0.4,0.6-0.1,0.9l-4.8,2.8C274.5,224.1,273.9,224.1,273.4,223.9z"/>
		<path class="st11" d="M265.7,219.4l-4.9-2.8c-0.4-0.2-0.3-0.6,0.1-0.9l4.8-2.8c0.5-0.3,1-0.3,1.5-0.1l4.9,2.8
			c0.4,0.2,0.3,0.6-0.1,0.9l-4.8,2.8C266.8,219.6,266.2,219.7,265.7,219.4z"/>
		<path class="st11" d="M296.4,237.1l-4.9-2.8c-0.4-0.2-0.3-0.6,0.1-0.9l4.8-2.8c0.5-0.3,1-0.3,1.5-0.1l4.9,2.8
			c0.4,0.2,0.3,0.6-0.1,0.9l-4.8,2.8C297.5,237.3,296.9,237.4,296.4,237.1z"/>
		<path class="st11" d="M303.9,241.5l-4.9-2.8c-0.4-0.2-0.3-0.6,0.1-0.9l4.8-2.8c0.5-0.3,1-0.3,1.5-0.1l4.9,2.8
			c0.4,0.2,0.3,0.6-0.1,0.9l-4.8,2.8C305,241.7,304.4,241.7,303.9,241.5z"/>
		<path class="st11" d="M311.5,245.8l-4.9-2.8c-0.4-0.2-0.3-0.6,0.1-0.9l4.8-2.8c0.5-0.3,1-0.3,1.5-0.1l4.9,2.8
			c0.4,0.2,0.3,0.6-0.1,0.9l-4.8,2.8C312.5,246,312,246.1,311.5,245.8z"/>
		<path class="st11" d="M319,250.2l-4.9-2.8c-0.4-0.2-0.3-0.6,0.1-0.9l4.8-2.8c0.5-0.3,1-0.3,1.5-0.1l4.9,2.8
			c0.4,0.2,0.3,0.6-0.1,0.9l-4.8,2.8C320.1,250.4,319.5,250.4,319,250.2z"/>
		<path class="st11" d="M326.5,254.5l-4.9-2.8c-0.4-0.2-0.3-0.6,0.1-0.9l4.8-2.8c0.5-0.3,1-0.3,1.5-0.1l4.9,2.8
			c0.4,0.2,0.3,0.6-0.1,0.9l-4.8,2.8C327.6,254.7,327,254.8,326.5,254.5z"/>
		<path class="st11" d="M334,258.9l-4.9-2.8c-0.4-0.2-0.3-0.6,0.1-0.9l4.8-2.8c0.5-0.3,1-0.3,1.5-0.1l4.9,2.8
			c0.4,0.2,0.3,0.6-0.1,0.9l-4.8,2.8C335.1,259.1,334.5,259.1,334,258.9z"/>
		<path class="st11" d="M341.6,263.2l-4.9-2.8c-0.4-0.2-0.3-0.6,0.1-0.9l4.8-2.8c0.5-0.3,1-0.3,1.5-0.1l4.9,2.8
			c0.4,0.2,0.3,0.6-0.1,0.9l-4.8,2.8C342.6,263.4,342.1,263.5,341.6,263.2z"/>
		<path class="st11" d="M349.1,267.6l-4.9-2.8c-0.4-0.2-0.4-0.6,0.1-0.9l4.8-2.8c0.5-0.3,1-0.3,1.5-0.1l4.9,2.8
			c0.4,0.2,0.3,0.6-0.1,0.9l-4.8,2.8C350.2,267.8,349.6,267.8,349.1,267.6z"/>
		<path class="st11" d="M356.6,271.9l-4.9-2.8c-0.4-0.2-0.4-0.6,0.1-0.9l4.8-2.8c0.5-0.3,1-0.3,1.5-0.1l4.9,2.8
			c0.4,0.2,0.3,0.6-0.1,0.9l-4.8,2.8C357.7,272.1,357.1,272.1,356.6,271.9z"/>
		<path class="st11" d="M284.9,222l-4.9-2.8c-0.4-0.2-0.3-0.6,0.1-0.9l4.8-2.8c0.5-0.3,1-0.3,1.5-0.1l4.9,2.8
			c0.4,0.2,0.4,0.6-0.1,0.9l-4.8,2.8C285.9,222.2,285.4,222.2,284.9,222z"/>
		<path class="st11" d="M277.4,217.7l-4.9-2.8c-0.4-0.2-0.4-0.6,0.1-0.9l4.8-2.8c0.5-0.3,1-0.3,1.5-0.1l4.9,2.8
			c0.4,0.2,0.3,0.6-0.1,0.9l-4.8,2.8C278.5,217.9,277.9,217.9,277.4,217.7z"/>
		<path class="st11" d="M269.9,213.4l-4.9-2.8c-0.4-0.2-0.3-0.6,0.1-0.9l4.9-2.8c0.5-0.3,1-0.3,1.5-0.1l4.9,2.8
			c0.4,0.2,0.3,0.6-0.1,0.9l-4.8,2.8C271,213.6,270.4,213.6,269.9,213.4z"/>
		<path class="st11" d="M262.4,209.1l-4.9-2.8c-0.4-0.2-0.3-0.6,0.1-0.9l4.8-2.8c0.5-0.3,1-0.3,1.5-0.1l4.9,2.8
			c0.4,0.2,0.4,0.6-0.1,0.9L264,209C263.5,209.3,262.9,209.3,262.4,209.1z"/>
		<path class="st11" d="M270.1,204.6l-4.9-2.8c-0.4-0.2-0.3-0.6,0.1-0.9l1.6-0.9c0.5-0.3,1-0.3,1.5-0.1l4.9,2.8
			c0.4,0.2,0.4,0.6-0.1,0.9l-1.6,0.9C271.2,204.8,270.6,204.8,270.1,204.6z"/>
		<path class="st11" d="M279.9,210.3l-4.9-2.8c-0.4-0.2-0.3-0.6,0.1-0.9l1.6-0.9c0.5-0.3,1-0.3,1.5-0.1l4.9,2.8
			c0.4,0.2,0.4,0.6-0.1,0.9l-1.6,0.9C280.9,210.5,280.4,210.5,279.9,210.3z"/>
		<path class="st11" d="M287.4,214.6l-4.9-2.8c-0.4-0.2-0.3-0.6,0.1-0.9l1.6-0.9c0.5-0.3,1-0.3,1.5-0.1l4.9,2.8
			c0.4,0.2,0.4,0.6-0.1,0.9l-1.6,0.9C288.4,214.8,287.9,214.8,287.4,214.6z"/>
		<path class="st11" d="M294.8,218.9l-4.8-2.8c-0.4-0.2-0.4-0.6,0.1-0.9l1.6-0.9c0.5-0.3,1-0.3,1.5-0.1l4.9,2.8
			c0.4,0.2,0.3,0.6-0.1,0.9l-1.6,0.9C295.9,219.1,295.3,219.1,294.8,218.9z"/>
		<path class="st11" d="M302.3,223.2l-4.9-2.8c-0.4-0.2-0.4-0.6,0.1-0.9l1.6-0.9c0.5-0.3,1-0.3,1.5-0.1l4.9,2.8
			c0.4,0.2,0.3,0.6-0.1,0.9l-1.6,0.9C303.3,223.4,302.8,223.4,302.3,223.2z"/>
		<path class="st11" d="M344,247.2l-4.9-2.8c-0.4-0.2-0.3-0.6,0.1-0.9l1.6-0.9c0.5-0.3,1-0.3,1.5-0.1l4.9,2.8
			c0.4,0.2,0.4,0.6-0.1,0.9l-1.6,0.9C345.1,247.4,344.5,247.5,344,247.2z"/>
		<path class="st11" d="M351.4,251.5l-4.9-2.8c-0.4-0.2-0.4-0.6,0.1-0.9l1.6-0.9c0.5-0.3,1-0.3,1.5-0.1l4.9,2.8
			c0.4,0.2,0.3,0.6-0.1,0.9l-1.6,0.9C352.5,251.7,351.9,251.8,351.4,251.5z"/>
		<path class="st11" d="M358.9,255.8L354,253c-0.4-0.2-0.4-0.6,0.1-0.9l1.6-0.9c0.5-0.3,1-0.3,1.5-0.1l4.9,2.8
			c0.4,0.2,0.3,0.6-0.1,0.9l-1.6,0.9C359.9,256,359.4,256.1,358.9,255.8z"/>
		<path class="st11" d="M366.3,260.2l-4.9-2.8c-0.4-0.2-0.3-0.6,0.1-0.9l1.6-0.9c0.5-0.3,1-0.3,1.5-0.1l4.9,2.8
			c0.4,0.2,0.3,0.6-0.1,0.9l-1.6,0.9C367.4,260.4,366.8,260.4,366.3,260.2z"/>
		<path class="st11" d="M292.4,226.4l-4.9-2.8c-0.4-0.2-0.3-0.6,0.1-0.9l4.8-2.8c0.5-0.3,1-0.3,1.5-0.1l4.9,2.8
			c0.4,0.2,0.4,0.6-0.1,0.9l-4.8,2.8C293.5,226.6,292.9,226.6,292.4,226.4z"/>
		<path class="st11" d="M300,230.7l-4.9-2.8c-0.4-0.2-0.3-0.6,0.1-0.9l4.8-2.8c0.5-0.3,1-0.3,1.5-0.1l4.9,2.8
			c0.4,0.2,0.4,0.6-0.1,0.9l-4.8,2.8C301.1,230.9,300.5,231,300,230.7z"/>
		<path class="st11" d="M307.5,235.1l-4.9-2.8c-0.4-0.2-0.3-0.6,0.1-0.9l4.8-2.8c0.5-0.3,1-0.3,1.5-0.1l4.9,2.8
			c0.4,0.2,0.4,0.6-0.1,0.9L309,235C308.5,235.3,308,235.3,307.5,235.1z"/>
		<path class="st11" d="M315,239.4l-4.9-2.8c-0.4-0.2-0.3-0.6,0.1-0.9l4.8-2.8c0.5-0.3,1-0.3,1.5-0.1l4.9,2.8
			c0.4,0.2,0.4,0.6-0.1,0.9l-4.8,2.8C316.1,239.6,315.5,239.7,315,239.4z"/>
		<path class="st11" d="M322.6,243.8l-4.9-2.8c-0.4-0.2-0.3-0.6,0.1-0.9l4.8-2.8c0.5-0.3,1-0.3,1.5-0.1l4.9,2.7
			c0.4,0.2,0.4,0.6-0.1,0.9l-4.8,2.8C323.6,243.9,323,244,322.6,243.8z"/>
		<path class="st11" d="M330.1,248.1l-4.9-2.8c-0.4-0.2-0.3-0.6,0.1-0.9l4.8-2.8c0.5-0.3,1-0.3,1.5-0.1l4.9,2.8
			c0.4,0.2,0.4,0.6-0.1,0.9l-4.8,2.8C331.1,248.3,330.6,248.3,330.1,248.1z"/>
		<path class="st11" d="M337.6,252.5l-4.9-2.8c-0.4-0.2-0.3-0.6,0.1-0.9l4.8-2.8c0.5-0.3,1-0.3,1.5-0.1l4.9,2.8
			c0.4,0.2,0.4,0.6-0.1,0.9l-4.8,2.8C338.7,252.7,338.1,252.7,337.6,252.5z"/>
		<path class="st11" d="M345.1,256.8l-4.9-2.8c-0.4-0.2-0.3-0.6,0.1-0.9l4.8-2.8c0.5-0.3,1-0.3,1.5-0.1l4.9,2.8
			c0.4,0.2,0.4,0.6-0.1,0.9l-4.8,2.8C346.2,257,345.6,257,345.1,256.8z"/>
		<path class="st11" d="M352.7,261.2l-4.9-2.8c-0.4-0.2-0.3-0.6,0.1-0.9l4.8-2.8c0.5-0.3,1-0.3,1.5-0.1l4.9,2.8
			c0.4,0.2,0.3,0.6-0.1,0.9l-4.8,2.8C353.7,261.4,353.2,261.4,352.7,261.2z"/>
		<path class="st11" d="M249.4,226.9l-14.4-8.3c-0.4-0.2-0.3-0.6,0.1-0.9l4.9-2.8c0.5-0.3,1-0.3,1.5-0.1l14.4,8.3
			c0.4,0.2,0.3,0.6-0.1,0.9l-4.8,2.8C250.5,227.2,249.9,227.2,249.4,226.9z"/>
		<path class="st11" d="M341.9,280.3l-14.4-8.3c-0.4-0.2-0.3-0.6,0.1-0.9l4.8-2.8c0.5-0.3,1-0.3,1.5-0.1l14.4,8.3
			c0.4,0.2,0.3,0.6-0.1,0.9l-4.8,2.8C342.9,280.5,342.4,280.6,341.9,280.3z"/>
		<path class="st11" d="M311.8,272.5l-4.9-2.8c-0.4-0.2-0.3-0.6,0.1-0.9l5.8-3.3c0.5-0.3,1-0.3,1.5-0.1l4.9,2.8
			c0.4,0.2,0.3,0.6-0.1,0.9l-5.8,3.3C312.8,272.8,312.3,272.8,311.8,272.5z"/>
		<path class="st11" d="M257.1,241l-7.8-4.5c-0.4-0.2-0.4-0.6,0.1-0.9l5.8-3.3c0.5-0.3,1-0.3,1.5-0.1l7.8,4.5
			c0.4,0.2,0.3,0.6-0.1,0.9l-5.8,3.3C258.1,241.2,257.6,241.2,257.1,241z"/>
		<path class="st11" d="M304.5,268.4l-7.8-4.5c-0.4-0.2-0.4-0.6,0.1-0.9l5.8-3.3c0.5-0.3,1-0.3,1.5-0.1l7.8,4.5
			c0.4,0.2,0.3,0.6-0.1,0.9l-5.8,3.3C305.6,268.6,305,268.6,304.5,268.4z"/>
		<path class="st11" d="M268,247.2l-7.8-4.5c-0.4-0.2-0.3-0.6,0.1-0.9l5.8-3.3c0.5-0.3,1-0.3,1.5-0.1l7.8,4.5
			c0.4,0.2,0.3,0.6-0.1,0.9l-5.8,3.3C269.1,247.5,268.5,247.5,268,247.2z"/>
		<path class="st11" d="M267.6,238.5l33.9,19.6c0.2,0.1,0.4,0.3,0.3,0.6c0,0.1-0.2,0.3-0.3,0.3l-5.9,3.4c-0.5,0.2-1,0.2-1.5,0
			l-33.9-19.6L267.6,238.5z"/>
		<path class="st11" d="M332.8,280.4l5.4,3.1c0.3,0.2,0.3,0.5-0.1,0.7l-2.4,1.4c-0.4,0.2-0.8,0.2-1.3,0.1l-5.4-3.1
			c-0.3-0.2-0.3-0.5,0.1-0.7l2.4-1.4C332,280.3,332.4,280.3,332.8,280.4z"/>
		<path class="st11" d="M325.2,276l5.4,3.1c0.3,0.2,0.3,0.5-0.1,0.7l-2.4,1.4c-0.4,0.2-0.8,0.2-1.3,0l-5.4-3.1
			c-0.3-0.2-0.3-0.5,0.1-0.7l2.4-1.4C324.4,275.9,324.8,275.9,325.2,276z"/>
		<path class="st11" d="M317.7,271.7l5.4,3.1c0.3,0.2,0.3,0.5-0.1,0.7l-2.4,1.4c-0.4,0.2-0.9,0.2-1.3,0l-5.4-3.1
			c-0.3-0.2-0.3-0.5,0.1-0.7l2.4-1.4C316.8,271.5,317.3,271.5,317.7,271.7z"/>
		<path class="st11" d="M329.4,273.6l5.4,3.1c0.3,0.2,0.3,0.5-0.1,0.7l-2.4,1.4c-0.4,0.2-0.8,0.2-1.3,0l-5.4-3.1
			c-0.3-0.2-0.3-0.5,0.1-0.7l2.4-1.4C328.5,273.5,329,273.5,329.4,273.6z"/>
	</g>
	
		<radialGradient id="SVGID_9_" cx="240.88" cy="342.71" r="223.34" gradientTransform="matrix(1 0 0 -1 0 449.89)" gradientUnits="userSpaceOnUse">
		<stop  offset="0" style="stop-color:#E39A65"/>
		<stop  offset="0.47" style="stop-color:#A92FFB"/>
		<stop  offset="0.59" style="stop-color:#891CFB"/>
		<stop  offset="0.73" style="stop-color:#6507FA"/>
		<stop  offset="1" style="stop-color:#3919BB"/>
	</radialGradient>
	<path class="st12" d="M409.1,264.9l-143.9-83.1c-2.3-1.5-3.4-4.4-2.6-7.1l32.5-105.6c0.8-2.6,3.3-3.7,5.6-2.4l143.9,83.1
		c2.3,1.5,3.4,4.4,2.6,7.1l-32.5,105.6C413.8,265.1,411.4,266.2,409.1,264.9z"/>
	
		<linearGradient id="SVGID_10_" gradientUnits="userSpaceOnUse" x1="265.4308" y1="284.0769" x2="444.3908" y2="284.0769" gradientTransform="matrix(1 0 0 -1 0 449.89)">
		<stop  offset="0" style="stop-color:#3919BB"/>
		<stop  offset="1" style="stop-color:#6507FA"/>
	</linearGradient>
	<path class="st13" d="M407.7,261.2l-139.5-80.6c-2.2-1.5-3.3-4.2-2.5-6.8l31.1-101c0.4-1.9,2.3-3.1,4.2-2.7
		c0.4,0.1,0.8,0.2,1.1,0.4l139.5,80.6c2.2,1.5,3.3,4.2,2.5,6.8l-31.1,101C412.3,261.4,409.9,262.4,407.7,261.2z"/>
	<path class="st14" d="M407.7,261.2l-139.5-80.6c-2.2-1.5-3.3-4.2-2.5-6.8l31.1-101c0.4-1.9,2.3-3.1,4.2-2.7
		c0.4,0.1,0.8,0.2,1.1,0.4l139.5,80.6c2.2,1.5,3.3,4.2,2.5,6.8l-31.1,101C412.3,261.4,409.9,262.4,407.7,261.2z"/>
	<path class="st14" d="M407.7,261.2l-139.5-80.6c-2.2-1.5-3.3-4.2-2.5-6.8l31.1-101c0.4-1.9,2.3-3.1,4.2-2.7
		c0.4,0.1,0.8,0.2,1.1,0.4l139.5,80.6c2.2,1.5,3.3,4.2,2.5,6.8l-31.1,101C412.3,261.4,409.9,262.4,407.7,261.2z"/>
	<path class="st15" d="M400.2,230.3l-94.5-54.5c-1.5-1-2.2-2.9-1.7-4.7l21.4-69.3c0.3-1.3,1.6-2.2,2.9-1.9c0.3,0.1,0.5,0.2,0.7,0.3
		l94.5,54.5c1.5,1,2.2,2.9,1.7,4.7l-21.4,69.4c-0.3,1.3-1.6,2.1-2.9,1.9C400.7,230.5,400.5,230.4,400.2,230.3z"/>
	
		<radialGradient id="SVGID_11_" cx="159.35" cy="390.4" r="347.85" gradientTransform="matrix(1 0 0 -1 0 449.89)" gradientUnits="userSpaceOnUse">
		<stop  offset="0" style="stop-color:#E39A65"/>
		<stop  offset="0.47" style="stop-color:#A92FFB"/>
		<stop  offset="0.59" style="stop-color:#891CFB"/>
		<stop  offset="0.73" style="stop-color:#6507FA"/>
		<stop  offset="1" style="stop-color:#3919BB"/>
	</radialGradient>
	<path class="st16" d="M387.5,232L293,177.4c-1.5-1-2.2-2.9-1.7-4.7l21.4-69.4c0.3-1.3,1.6-2.1,2.9-1.9c0.3,0.1,0.5,0.2,0.8,0.3
		l94.5,54.5c1.5,1,2.2,2.9,1.7,4.7l-21.4,69.4c-0.3,1.3-1.5,2.2-2.8,1.9C388,232.3,387.7,232.1,387.5,232z"/>
	<g class="st17">
		<path class="st11" d="M387.5,232L293,177.4c-1.5-1-2.2-2.9-1.7-4.7l21.4-69.4c0.3-1.3,1.6-2.1,2.9-1.9c0.3,0.1,0.5,0.2,0.8,0.3
			l94.5,54.5c1.5,1,2.2,2.9,1.7,4.7l-21.4,69.4c-0.3,1.3-1.5,2.2-2.8,1.9C388,232.3,387.7,232.1,387.5,232z"/>
	</g>
	<path class="st9" d="M410.8,156.4l-94.5-54.5c-0.8-0.5-1.9-0.5-2.7,0.1c0.5,0,0.9,0.1,1.4,0.3l94.5,54.5c1.5,1,2.2,2.9,1.7,4.7
		l-21.4,69.4c-0.2,0.6-0.5,1.1-1,1.5c1.1-0.1,2-0.8,2.3-1.9l21.4-69.4C413,159.3,412.3,157.4,410.8,156.4z"/>
	<path class="st14" d="M268.3,288.6c-1.2,0-2.4-0.3-3.5-0.8l0,0L227,265.9c-0.9-0.4-1.5-1.3-1.6-2.3c0.1-1.3,0.9-2.4,2.1-2.9
		l19.5-11.3c2.5-1.4,5.4-1.5,8-0.3l37.8,21.8c0.9,0.4,1.5,1.3,1.6,2.3c-0.1,1.3-0.9,2.4-2.1,2.9l-19.5,11.3
		C271.4,288.2,269.9,288.6,268.3,288.6z M251.5,249.4c-1.4,0-2.7,0.3-3.9,1l-19.5,11.3c-1,0.6-1.5,1.3-1.5,2c0.1,0.6,0.4,1.1,1,1.4
		l37.8,21.9c2.2,1,4.7,0.9,6.9-0.3l19.5-11.3c1-0.6,1.5-1.3,1.5-2c-0.1-0.6-0.4-1.1-1-1.4l-37.9-21.9
		C253.5,249.6,252.5,249.4,251.5,249.4L251.5,249.4z"/>
	<path class="st9" d="M339.3,138.2l-5.8-3.4c-0.6-0.4-0.8-1-0.6-1.7l0,0c0.1-0.5,0.6-0.8,1-0.7c0.1,0,0.2,0.1,0.3,0.1l5.9,3.4
		c0.6,0.4,0.8,1,0.6,1.7l0,0c-0.1,0.5-0.5,0.8-1,0.7C339.5,138.4,339.4,138.3,339.3,138.2z"/>
	<path class="st9" d="M353.2,146.3l-8.6-5c-0.6-0.4-0.8-1-0.6-1.7l0,0c0.1-0.5,0.5-0.8,1-0.7c0.1,0,0.2,0.1,0.3,0.1l8.6,5
		c0.6,0.4,0.8,1,0.6,1.7l0,0c-0.1,0.5-0.5,0.8-1,0.7C353.4,146.4,353.3,146.3,353.2,146.3z"/>
	<path class="st9" d="M327.5,164.2l-5.8-3.4c-0.6-0.4-0.8-1-0.6-1.7l0,0c0.1-0.5,0.6-0.8,1-0.7c0.1,0,0.2,0.1,0.3,0.1l5.8,3.4
		c0.6,0.4,0.8,1,0.6,1.7l0,0c-0.1,0.5-0.6,0.8-1,0.7C327.7,164.3,327.6,164.3,327.5,164.2z"/>
	<path class="st9" d="M339.9,171.4l-8.6-5c-0.6-0.4-0.8-1-0.6-1.7l0,0c0.1-0.5,0.6-0.8,1-0.7c0.1,0,0.2,0.1,0.3,0.1l8.6,5
		c0.6,0.4,0.8,1,0.6,1.7l0,0c-0.1,0.5-0.6,0.8-1,0.7C340.1,171.5,340,171.4,339.9,171.4z"/>
	<path class="st9" d="M321.8,133.6l-3.6-2.1c-0.6-0.4-0.8-1-0.6-1.7l0,0c0.1-0.5,0.6-0.8,1-0.7c0.1,0,0.2,0.1,0.3,0.1l3.6,2.1
		c0.6,0.4,0.8,1,0.6,1.7l0,0c-0.1,0.5-0.6,0.8-1,0.7C322,133.7,321.9,133.7,321.8,133.6z"/>
	<path class="st9" d="M332.8,145.4l-11.1-6.4c-0.6-0.4-0.8-1-0.6-1.7l0,0c0.1-0.5,0.6-0.8,1-0.7c0.1,0,0.2,0.1,0.3,0.1l11.1,6.4
		c0.6,0.4,0.8,1,0.6,1.7l0,0c-0.1,0.5-0.6,0.7-1.1,0.6C332.9,145.5,332.9,145.5,332.8,145.4z"/>
	<path class="st9" d="M322.5,150.4l-3.6-2.1c-0.6-0.4-0.8-1-0.6-1.7l0,0c0.1-0.5,0.5-0.8,1-0.7c0.1,0,0.2,0.1,0.3,0.1l3.6,2.1
		c0.6,0.4,0.8,1,0.6,1.7l0,0c-0.1,0.5-0.6,0.8-1,0.7C322.7,150.5,322.6,150.5,322.5,150.4z"/>
	<path class="st9" d="M341.3,183.1l-9.7-5.6c-0.6-0.4-0.8-1-0.6-1.7l0,0c0.1-0.5,0.5-0.8,1-0.7c0.1,0,0.2,0.1,0.3,0.1l9.8,5.6
		c0.6,0.4,0.8,1,0.6,1.7l0,0c-0.1,0.5-0.6,0.8-1,0.7C341.4,183.2,341.3,183.2,341.3,183.1z"/>
	<path class="st9" d="M318.4,159l-2.3-1.4c-0.6-0.4-0.8-1-0.6-1.7l0,0c0.1-0.5,0.5-0.8,1-0.7c0.1,0,0.2,0.1,0.3,0.1l2.3,1.4
		c0.6,0.4,0.8,1,0.6,1.7l0,0c-0.1,0.5-0.6,0.8-1,0.7C318.6,159.1,318.5,159.1,318.4,159z"/>
	<path class="st9" d="M316.2,168.6l-2.9-1.7c-0.6-0.4-0.8-1-0.6-1.7l0,0c0.1-0.5,0.6-0.8,1-0.7c0.1,0,0.2,0.1,0.3,0.1l2.9,1.7
		c0.6,0.4,0.8,1,0.6,1.7l0,0c-0.1,0.5-0.6,0.8-1,0.7C316.4,168.7,316.3,168.7,316.2,168.6z"/>
	<path class="st9" d="M327.5,175.2l-7.7-4.4c-0.6-0.4-0.8-1-0.6-1.7l0,0c0.1-0.5,0.5-0.8,1-0.7c0.1,0,0.2,0.1,0.3,0.1l7.7,4.4
		c0.6,0.4,0.8,1,0.6,1.7l0,0c-0.1,0.5-0.6,0.8-1,0.7C327.7,175.3,327.6,175.2,327.5,175.2z"/>
	<path class="st9" d="M317.4,174.8l-5.5-3.2c-0.6-0.4-0.8-1-0.6-1.7l0,0c0.1-0.5,0.5-0.8,1-0.7c0.1,0,0.2,0.1,0.3,0.1l5.5,3.2
		c0.6,0.4,0.8,1,0.6,1.7l0,0c-0.1,0.5-0.5,0.8-1,0.7C317.6,174.9,317.5,174.9,317.4,174.8z"/>
	<path class="st9" d="M349.6,188l-3.5-2c-0.6-0.4-0.8-1-0.6-1.7l0,0c0.1-0.5,0.6-0.8,1.1-0.7c0.1,0,0.2,0.1,0.3,0.1l3.5,2
		c0.6,0.4,0.8,1,0.6,1.7l0,0c-0.1,0.5-0.6,0.8-1,0.7C349.8,188.1,349.7,188.1,349.6,188z"/>
	<path class="st9" d="M336.1,158.2l-9.7-5.6c-0.6-0.4-0.8-1-0.6-1.7l0,0c0.1-0.5,0.6-0.8,1-0.7c0.1,0,0.2,0.1,0.3,0.1l9.7,5.6
		c0.6,0.4,0.8,1,0.6,1.7l0,0c-0.1,0.5-0.5,0.8-1,0.7C336.3,158.3,336.2,158.3,336.1,158.2z"/>
	<path class="st18" d="M337.2,153.4l-17-9.8c-0.6-0.4-0.8-1-0.6-1.7l0,0c0.1-0.5,0.6-0.8,1-0.7c0.1,0,0.2,0.1,0.3,0.1l17,9.8
		c0.6,0.4,0.8,1,0.6,1.7l0,0c-0.1,0.5-0.6,0.8-1,0.7C337.4,153.5,337.3,153.5,337.2,153.4z"/>
	<path class="st18" d="M327.2,158.6l-9.7-5.6c-0.6-0.4-0.8-1-0.6-1.7l0,0c0.1-0.5,0.6-0.8,1-0.7c0.1,0,0.2,0.1,0.3,0.1l9.8,5.6
		c0.6,0.4,0.8,1,0.6,1.7l0,0c-0.1,0.5-0.6,0.7-1.1,0.6C327.4,158.7,327.3,158.6,327.2,158.6z"/>
	<path class="st18" d="M343.5,162.5l-3.5-2c-0.6-0.4-0.8-1-0.6-1.7l0,0c0.1-0.5,0.6-0.8,1-0.7c0.1,0,0.2,0.1,0.3,0.1l3.5,2
		c0.6,0.4,0.8,1,0.6,1.7l0,0c-0.1,0.5-0.6,0.8-1,0.7C343.6,162.6,343.5,162.6,343.5,162.5z"/>
	<path class="st18" d="M379.5,161.4l-21-12.1c-0.6-0.4-0.8-1-0.6-1.7l0,0c0.1-0.5,0.5-0.8,1-0.7c0.1,0,0.2,0.1,0.3,0.1l21,12.1
		c0.6,0.4,0.8,1,0.6,1.7l0,0c-0.1,0.5-0.5,0.8-1,0.7C379.7,161.5,379.6,161.5,379.5,161.4z"/>
	<path class="st19" d="M326.4,169l-11.7-6.8c-0.6-0.4-0.8-1-0.6-1.7l0,0c0.1-0.5,0.5-0.8,1-0.7c0.1,0,0.2,0.1,0.3,0.1l11.7,6.8
		c0.6,0.4,0.8,1,0.6,1.7l0,0c-0.1,0.5-0.5,0.8-1,0.7C326.6,169.1,326.5,169.1,326.4,169z"/>
	<path class="st19" d="M328.2,131.8l-8.6-5c-0.6-0.4-0.8-1-0.6-1.7l0,0c0.1-0.5,0.6-0.8,1-0.7c0.1,0,0.2,0.1,0.3,0.1l8.6,5
		c0.6,0.4,0.8,1,0.6,1.7l0,0c-0.1,0.5-0.6,0.8-1,0.7C328.3,131.9,328.2,131.9,328.2,131.8z"/>
	<path class="st18" d="M315.6,179.2l-10-5.8c-0.6-0.4-0.8-1-0.6-1.7l0,0c0.1-0.5,0.6-0.8,1-0.7c0.1,0,0.2,0.1,0.3,0.1l10,5.8
		c0.6,0.4,0.8,1,0.6,1.7l0,0c-0.1,0.5-0.6,0.8-1,0.7C315.8,179.3,315.7,179.3,315.6,179.2z"/>
	<path class="st9" d="M381.8,150.6l-4.3-2.5c-0.4-0.3-0.6-0.8-0.5-1.2l0,0c0.1-0.3,0.4-0.6,0.7-0.5c0.1,0,0.2,0.1,0.3,0.1l4.3,2.5
		c0.4,0.3,0.6,0.8,0.5,1.2l0,0c-0.1,0.3-0.4,0.6-0.7,0.5C382,150.8,381.9,150.7,381.8,150.6z"/>
	<path class="st9" d="M390,155.3l-4.3-2.5c-0.4-0.3-0.6-0.8-0.5-1.2l0,0c0.1-0.3,0.4-0.6,0.7-0.5c0.1,0,0.2,0.1,0.3,0.1l4.3,2.5
		c0.4,0.3,0.6,0.8,0.5,1.2l0,0c-0.1,0.3-0.4,0.6-0.7,0.5C390.2,155.5,390.1,155.4,390,155.3z"/>
	<path class="st9" d="M398.1,160l-4.3-2.5c-0.4-0.3-0.6-0.8-0.5-1.2l0,0c0.1-0.3,0.4-0.6,0.7-0.5c0.1,0,0.2,0,0.2,0.1l4.3,2.5
		c0.4,0.3,0.6,0.8,0.5,1.2l0,0c-0.1,0.3-0.4,0.6-0.7,0.5C398.2,160.1,398.2,160.1,398.1,160z"/>
	<path class="st19" d="M402.1,162.4l-0.1-0.1c-0.4-0.3-0.6-0.8-0.5-1.2l0,0c0.1-0.3,0.4-0.6,0.7-0.5c0.1,0,0.2,0.1,0.3,0.1l0.1,0.1
		c0.4,0.3,0.6,0.8,0.5,1.2l0,0c-0.1,0.3-0.4,0.6-0.7,0.5C402.3,162.5,402.2,162.4,402.1,162.4z"/>
</g>
<g id="Cup">
	<ellipse class="st5" cx="181.6" cy="190.7" rx="19.6" ry="11.3"/>
	
		<radialGradient id="SVGID_12_" cx="150.22" cy="322.22" r="165.35" gradientTransform="matrix(1 0 0 -1 0 449.89)" gradientUnits="userSpaceOnUse">
		<stop  offset="0" style="stop-color:#E39A65"/>
		<stop  offset="0.15" style="stop-color:#A92FFB"/>
		<stop  offset="0.41" style="stop-color:#3919BB"/>
		<stop  offset="0.93" style="stop-color:#3919BB"/>
	</radialGradient>
	<path class="st20" d="M210.8,109.9h-56l5.2,60.6l0,0c0,3.4,2.2,6.7,6.7,9.3c8.9,5.1,23.3,5.1,32.2,0c4.4-2.6,6.7-5.9,6.7-9.3
		L210.8,109.9z"/>
	<path class="st14" d="M210.8,109.9h-56l0.9,10c1.5,1.8,3.2,3.4,5.2,4.7c10.7,7.1,28.3,8.5,40.4,3.3l-1.9,44.3
		c-0.1,1.9-0.8,3.8-2,5.3c-1.8,2.1-5.3,4.6-12,6.1c4.7-0.2,9.4-1.5,13.6-3.8c4.4-2.6,6.7-5.9,6.7-9.3l4.2-48.6l0,0L210.8,109.9z"/>
	<ellipse class="st14" cx="182.8" cy="109.9" rx="28" ry="16.2"/>
	<ellipse class="st14" cx="182.8" cy="104.2" rx="24.1" ry="13.9"/>
	
		<linearGradient id="SVGID_13_" gradientUnits="userSpaceOnUse" x1="153.14" y1="342.6613" x2="212.45" y2="342.6613" gradientTransform="matrix(1 0 0 -1 0 449.89)">
		<stop  offset="0" style="stop-color:#E39A65"/>
		<stop  offset="0.25" style="stop-color:#A92FFB"/>
		<stop  offset="0.56" style="stop-color:#3919BB"/>
	</linearGradient>
	<path class="st21" d="M212.4,109.1L212.4,109.1L212.4,109.1C212.4,109.1,212.4,109,212.4,109.1l-0.5-5.5v0.1
		c-0.2-4.1-3.1-8.2-8.5-11.3c-11.4-6.6-29.8-6.6-41.1,0c-5.6,3.2-8.4,7.4-8.5,11.6l0,0l-0.5,4.8c0,0.1,0,0.3,0,0.4v0.1l0,0
		c-0.3,4.6,2.6,9.3,8.7,12.8c11.6,6.7,30.4,6.7,42,0C209.9,118.4,212.8,113.7,212.4,109.1z"/>
	
		<linearGradient id="SVGID_14_" gradientUnits="userSpaceOnUse" x1="158.71" y1="345.72" x2="206.89" y2="345.72" gradientTransform="matrix(1 0 0 -1 0 449.89)">
		<stop  offset="0" style="stop-color:#4F1FEC"/>
		<stop  offset="1" style="stop-color:#A92FFB"/>
	</linearGradient>
	<ellipse class="st22" cx="182.8" cy="104.2" rx="24.1" ry="13.9"/>
	
		<linearGradient id="SVGID_15_" gradientUnits="userSpaceOnUse" x1="157.56" y1="345.72" x2="205.74" y2="345.72" gradientTransform="matrix(1 0 0 -1 0 449.89)">
		<stop  offset="0" style="stop-color:#4F1FEC"/>
		<stop  offset="1" style="stop-color:#A92FFB"/>
	</linearGradient>
	<ellipse class="st23" cx="181.6" cy="104.2" rx="24.1" ry="13.9"/>
	<path class="st14" d="M168.6,96.4c9.4-5.4,24.7-5.4,34.1,0l0.3,0.2c-1-0.9-2.1-1.6-3.2-2.3c-9.4-5.4-24.7-5.4-34.1,0
		s-9.4,14-0.3,19.5C159.4,108.4,160.4,101.1,168.6,96.4z"/>
	
		<linearGradient id="SVGID_16_" gradientUnits="userSpaceOnUse" x1="158.6807" y1="352.05" x2="219.4307" y2="352.05" gradientTransform="matrix(1 0 0 -1 0 449.89)">
		<stop  offset="0" style="stop-color:#131060"/>
		<stop  offset="0.19" style="stop-color:#141062"/>
		<stop  offset="0.28" style="stop-color:#19106A"/>
		<stop  offset="0.36" style="stop-color:#221078"/>
		<stop  offset="0.42" style="stop-color:#2E0F8B"/>
		<stop  offset="0.48" style="stop-color:#3E0FA3"/>
		<stop  offset="0.54" style="stop-color:#510EC2"/>
		<stop  offset="0.58" style="stop-color:#680DE5"/>
		<stop  offset="0.61" style="stop-color:#740DF8"/>
		<stop  offset="0.62" style="stop-color:#7A14F0"/>
		<stop  offset="0.68" style="stop-color:#9B3CC3"/>
		<stop  offset="0.75" style="stop-color:#B75D9D"/>
		<stop  offset="0.81" style="stop-color:#CC7680"/>
		<stop  offset="0.88" style="stop-color:#DC886C"/>
		<stop  offset="0.94" style="stop-color:#E5935F"/>
		<stop  offset="1" style="stop-color:#E8975B"/>
	</linearGradient>
	<path class="st24" d="M165.8,96.7c9.4-5.4,24.7-5.4,34.1,0c4.2,2.4,6.5,5.5,7,8.6c0.6-3.9-1.7-8-7-11c-9.4-5.4-24.7-5.4-34.1,0
		c-5.2,3-7.6,7.1-7,11C159.3,102.2,161.6,99.2,165.8,96.7z"/>
	
		<radialGradient id="SVGID_17_" cx="145.74" cy="359.49" r="108.16" gradientTransform="matrix(1 0 0 -1 0 449.89)" gradientUnits="userSpaceOnUse">
		<stop  offset="0" style="stop-color:#E39A65"/>
		<stop  offset="0.25" style="stop-color:#A92FFB"/>
		<stop  offset="0.74" style="stop-color:#3919BB"/>
	</radialGradient>
	<path class="st25" d="M203.5,92.4c-11.3-6.7-29.8-6.8-41.3-0.4s-11.6,17.2-0.2,23.8s29.8,6.8,41.3,0.4S214.9,99.1,203.5,92.4z
		 M199.8,114c-3.4,1.9-7.1,3.1-11,3.6l-0.4-1.4c-0.2-0.6-0.7-1-1.3-1h-8.6c-0.6,0-1.2,0.4-1.3,1l-0.4,1.4c-3.9-0.5-7.6-1.7-11-3.6
		c-9.4-5.4-9.4-14.2,0-19.7s24.7-5.4,34.1,0S209.2,108.6,199.8,114z"/>
	<path class="st9" d="M199.8,93.3c-9.4-5.4-24.7-5.4-34.1,0c-4.9,2.8-7.3,6.6-7,10.3c0.2-3.4,2.6-6.7,7-9.3c9.4-5.4,24.7-5.4,34.1,0
		c4.5,2.6,6.8,5.9,7,9.3C207.1,99.9,204.8,96.1,199.8,93.3z"/>
	<path class="st9" d="M203.3,115.2c-11.5,6.5-29.9,6.3-41.3-0.4c-5.4-3.2-8.2-7.3-8.4-11.4c-0.2,4.4,2.6,8.9,8.4,12.4
		c11.3,6.7,29.8,6.8,41.3,0.4c6-3.4,8.9-8,8.6-12.5C211.8,108,208.9,112.1,203.3,115.2z"/>
	<path class="st26" d="M180.2,117h5.2c0.4,0,0.6,0.3,0.6,0.7v0.1c0,0.4-0.3,0.7-0.6,0.7h-5.2c-0.4,0-0.6-0.3-0.6-0.7v-0.1
		C179.6,117.3,179.9,117,180.2,117z"/>
	
		<linearGradient id="SVGID_18_" gradientUnits="userSpaceOnUse" x1="178.98" y1="332.43" x2="187.39" y2="332.43" gradientTransform="matrix(1 0 0 -1 0 449.89)">
		<stop  offset="0" style="stop-color:#131060"/>
		<stop  offset="0.19" style="stop-color:#141062"/>
		<stop  offset="0.28" style="stop-color:#19106A"/>
		<stop  offset="0.36" style="stop-color:#221078"/>
		<stop  offset="0.42" style="stop-color:#2E0F8B"/>
		<stop  offset="0.48" style="stop-color:#3E0FA3"/>
		<stop  offset="0.54" style="stop-color:#510EC2"/>
		<stop  offset="0.58" style="stop-color:#680DE5"/>
		<stop  offset="0.61" style="stop-color:#740DF8"/>
		<stop  offset="0.62" style="stop-color:#7A14F0"/>
		<stop  offset="0.68" style="stop-color:#9B3CC3"/>
		<stop  offset="0.75" style="stop-color:#B75D9D"/>
		<stop  offset="0.81" style="stop-color:#CC7680"/>
		<stop  offset="0.88" style="stop-color:#DC886C"/>
		<stop  offset="0.94" style="stop-color:#E5935F"/>
		<stop  offset="1" style="stop-color:#E8975B"/>
	</linearGradient>
	<path class="st27" d="M185.4,117h-5.2c-0.4,0-0.6,0.3-0.6,0.7v0.1c0,0.1,0,0.1,0,0.2c0.1-0.3,0.3-0.5,0.6-0.5h5.2
		c0.3,0,0.5,0.2,0.6,0.5c0-0.1,0-0.1,0-0.2v-0.1C186,117.3,185.7,117,185.4,117z"/>
	<path class="st18" d="M183.6,164.2c-0.6,2.4-3.1,3.8-5.5,3.2s-3.8-3.1-3.2-5.5c0.6-2.4,2.9-3.1,5.3-2.4S184.2,161.8,183.6,164.2z"
		/>
	<path class="st18" d="M187.1,159.5c-0.7,0.9-1.9,1-2.8,0.4s-1-1.9-0.4-2.8c0.1-0.1,0.3-0.3,0.4-0.4c0.9-0.9,2.6-1.3,3.4-0.5
		S188,158.6,187.1,159.5z"/>
	<path class="st18" d="M182.4,155.8c0,1.1-0.9,2-2,2c-1.1,0-2-0.9-2-2c0-0.2,0-0.4,0.1-0.6c0.2-1.2,1.4-2.6,2.4-2.4
		S182.6,154.5,182.4,155.8z"/>
	<path class="st18" d="M176.7,155.2c0.5,1,0.2,2.2-0.8,2.7s-2.2,0.2-2.7-0.8c-0.1-0.1-0.1-0.3-0.2-0.5c-0.5-1.2-0.2-2.9,0.8-3.3
		S176.2,154,176.7,155.2z"/>
	<path class="st28" d="M184.6,117.7c0,0,15.6-5.2,9.3-23.2S175.3,71,180.2,56.6c0,0-7.8,11.6-0.5,27.4s8.9,13.9,8.8,21.5
		c0,5.1-2.8,9.8-7.3,12.2L184.6,117.7z"/>
	<path class="st28" d="M186,59.1c0,0-1.6-10.8,8.5-21.6c0,0-8.9,19.9-6,29.8C188.5,67.3,186.1,61,186,59.1z"/>
</g>
</svg>
